<svg width="56" height="60" viewBox="0 0 56 60" fill="none" xmlns="http://www.w3.org/2000/svg">
<path d="M36.5151 49.3534H29.5706C28.5922 49.3534 27.799 50.1404 27.799 51.1112C27.799 52.082 28.5922 52.869 29.5706 52.869H36.5151C37.4936 52.869 38.2868 52.082 38.2868 51.1112C38.2868 50.1404 37.4936 49.3534 36.5151 49.3534Z" fill="#1A568C"/>
<path d="M54.4324 9.12141C54.2472 8.56383 54.0202 8.02055 53.7537 7.49625C54.153 6.60703 53.9855 5.52598 53.2515 4.79766L51.1646 2.72719C50.7041 2.27004 50.0914 2.01832 49.4399 2.01832C49.0907 2.01832 48.7526 2.09062 48.4433 2.2282C47.915 1.96395 47.368 1.73906 46.8069 1.55543C46.7523 1.41434 46.6835 1.28051 46.6045 1.15359C46.3557 0.480938 45.7066 0 44.9424 0H1.77165C0.793227 0 0 0.787031 0 1.75781V58.2422C0 59.213 0.793227 60 1.77165 60H44.9425C45.921 60 46.7142 59.213 46.7142 58.2422V39.3446L46.825 39.408C47.0988 39.5646 47.4043 39.6429 47.7097 39.6429C48.0159 39.6429 48.3219 39.5643 48.5962 39.4071C49.1439 39.093 49.4814 38.5129 49.4814 37.8851V23.6711C50.092 23.6607 50.6995 23.4259 51.1645 22.9646L53.2516 20.8938C53.9856 20.1654 54.1529 19.0845 53.7535 18.1954C54.0204 17.6709 54.2472 17.1277 54.4324 16.5703C55.3483 16.2216 56 15.34 56 14.31V11.3817C56 10.3518 55.3483 9.47016 54.4324 9.12141ZM52.4567 13.4774C51.854 13.782 51.388 14.33 51.2051 15.0102C51.0147 15.7189 50.7298 16.4007 50.3579 17.0372C50.0027 17.6454 49.942 18.3595 50.1519 18.9976L49.2531 19.8894C48.6096 19.6813 47.8897 19.7416 47.2769 20.0943C46.6356 20.4629 45.9485 20.7457 45.2341 20.9347C44.5488 21.116 43.9964 21.5784 43.6894 22.1764H42.4168C42.1098 21.5784 41.5574 21.1161 40.872 20.9347C40.1577 20.7457 39.4705 20.463 38.8295 20.0945C38.2163 19.7418 37.4965 19.6814 36.8532 19.8896L35.9542 18.9979C36.1639 18.3598 36.1033 17.6455 35.748 17.037C35.3764 16.4011 35.0914 15.7193 34.9009 15.0103C34.7181 14.3304 34.2522 13.7823 33.6494 13.4777V12.2145C34.2522 11.9099 34.7181 11.3618 34.9011 10.6816C35.0914 9.97289 35.3763 9.29109 35.7483 8.65465C36.1034 8.04644 36.1641 7.3323 35.9544 6.69434L36.8532 5.80254C37.4964 6.01102 38.2163 5.95043 38.8293 5.59781C39.4705 5.22914 40.1577 4.94637 40.872 4.75734C41.5574 4.57605 42.1098 4.11363 42.4168 3.51562H43.6895C43.9965 4.11363 44.5489 4.57594 45.2343 4.75734C45.9486 4.94625 46.6358 5.22902 47.2767 5.59758C47.89 5.95043 48.61 6.01043 49.2531 5.80254L50.152 6.69434C49.9424 7.33242 50.003 8.04656 50.3582 8.65523C50.7298 9.29109 51.0148 9.97289 51.2053 10.682C51.3883 11.3619 51.8541 11.9099 52.4568 12.2145V13.4774H52.4567ZM3.5433 56.4844V3.51562H34.1469L32.8547 4.79777C32.1205 5.52609 31.9531 6.60715 32.3526 7.49637C32.0858 8.02078 31.8589 8.56406 31.6737 9.12141C31.5688 9.16137 31.4679 9.20906 31.3706 9.26238H10.1989C9.2205 9.26238 8.42727 10.0494 8.42727 11.0202C8.42727 11.991 9.2205 12.778 10.1989 12.778H30.106V14.3101C30.106 15.16 30.5505 15.908 31.2202 16.3397H10.1989C9.2205 16.3397 8.42727 17.1267 8.42727 18.0975C8.42727 19.0683 9.2205 19.8553 10.1989 19.8553H32.2386C32.3489 20.2357 32.5531 20.5948 32.8547 20.8941L34.9417 22.9646C35.4067 23.426 36.0141 23.6609 36.6248 23.6711V23.798H10.1989C9.2205 23.798 8.42727 24.585 8.42727 25.5558C8.42727 26.5266 9.2205 27.3136 10.1989 27.3136H36.6246V30.8753H10.1989C9.2205 30.8753 8.42727 31.6623 8.42727 32.6331C8.42727 33.6039 9.2205 34.3909 10.1989 34.3909H36.6246V37.8851C36.6246 38.5129 36.9621 39.093 37.5099 39.4071C38.0579 39.7212 38.7328 39.7215 39.281 39.408L43.053 37.2507L43.1708 37.3181V56.4844H3.5433ZM42.1682 33.6988L40.1679 34.8428V25.2451C40.5663 25.526 41.0526 25.6917 41.5773 25.6917H44.5287C45.0534 25.6917 45.5397 25.526 45.9381 25.2451V34.8428L43.9378 33.6988C43.664 33.5422 43.3586 33.4639 43.053 33.4639C42.7475 33.4639 42.442 33.5422 42.1682 33.6988Z" fill="#1A568C"/>
<path d="M48.6935 12.8459C48.6935 9.75996 46.1632 7.24945 43.053 7.24945C39.9428 7.24945 37.4125 9.75996 37.4125 12.8459C37.4125 15.9318 39.9428 18.4423 43.053 18.4423C46.1632 18.4423 48.6935 15.9318 48.6935 12.8459ZM40.9558 12.8459C40.9558 11.6985 41.8966 10.7651 43.053 10.7651C44.2094 10.7651 45.1502 11.6985 45.1502 12.8459C45.1502 13.9932 44.2094 14.9266 43.053 14.9266C41.8966 14.9266 40.9558 13.9932 40.9558 12.8459Z" fill="#1A568C"/>
</svg>
