<svg width="60" height="60" viewBox="0 0 60 60" fill="none" xmlns="http://www.w3.org/2000/svg">
<path d="M20.4626 28.7571C19.7761 28.0706 18.663 28.0706 17.9765 28.7571L12.1879 34.5455L9.91503 32.2727C9.22863 31.5863 8.11553 31.5863 7.42901 32.2727C6.74249 32.9592 6.74249 34.0721 7.42901 34.7586L10.945 38.2743C11.2883 38.6175 11.7382 38.7891 12.188 38.7891C12.6378 38.7891 13.0878 38.6175 13.4309 38.2743L20.4626 31.243C21.1491 30.5565 21.1491 29.4436 20.4626 28.7571Z" fill="#1A568C"/>
<path d="M20.4626 42.8196C19.7761 42.1331 18.663 42.1331 17.9765 42.8196L12.1879 48.608L9.91503 46.3352C9.22863 45.6488 8.11553 45.6488 7.42901 46.3352C6.74249 47.0217 6.74249 48.1346 7.42901 48.8211L10.945 52.3368C11.2883 52.68 11.7382 52.8516 12.188 52.8516C12.6378 52.8516 13.0878 52.68 13.4309 52.3368L20.4626 45.3055C21.1491 44.619 21.1491 43.5061 20.4626 42.8196Z" fill="#1A568C"/>
<path d="M18.7049 21.7259L16.432 19.4531L18.7048 17.1805C19.3913 16.494 19.3913 15.3811 18.7048 14.6946C18.0184 14.0081 16.9053 14.0081 16.2187 14.6946L13.9459 16.9673L11.673 14.6946C10.9866 14.0081 9.87354 14.0081 9.18702 14.6946C8.50051 15.3811 8.50051 16.494 9.18702 17.1805L11.4599 19.4531L9.18714 21.7257C8.50062 22.4122 8.50062 23.5253 9.18714 24.2118C9.87354 24.8981 10.9866 24.8982 11.6732 24.2118L13.946 21.939L16.2189 24.2118C16.9053 24.8981 18.0184 24.8982 18.7049 24.2118C19.3914 23.5253 19.3914 22.4123 18.7049 21.7259Z" fill="#1A568C"/>
<path d="M58.4584 17.5336C56.4017 15.4781 53.057 15.4781 51.0002 17.5336C50.6803 17.8535 42.833 25.7016 42.424 26.1094V8.78906C42.424 5.88164 40.0579 3.51562 37.1503 3.51562H31.5742C30.8488 1.46953 28.894 0 26.6029 0H15.8211C13.53 0 11.5752 1.46953 10.8498 3.51562H5.2737C2.36613 3.51562 0 5.88164 0 8.78906V54.7266C0 57.634 2.36613 60 5.2737 60H37.1503C40.0579 60 42.424 57.634 42.424 54.7266V41.025L52.2436 31.2059L53.4859 32.4492C54.1738 33.1359 54.1738 34.248 53.4859 34.9348L46.0277 42.3926C45.3421 43.0793 45.3421 44.1926 46.0277 44.8793C46.7145 45.5648 47.8278 45.566 48.5145 44.8793L55.9727 37.4215C58.033 35.3602 58.0342 32.025 55.9727 29.9637L54.7293 28.7203L58.4584 24.9914C60.5139 22.9359 60.5139 19.5902 58.4584 17.5336ZM15.821 3.51562H26.6028C27.572 3.51562 28.3607 4.3043 28.3607 5.27344C28.3607 6.24258 27.572 7.03125 26.6028 7.03125H15.821C14.8518 7.03125 14.0631 6.24258 14.0631 5.27344C14.0631 4.3043 14.8518 3.51562 15.821 3.51562ZM38.9082 54.7266C38.9082 55.6957 38.1195 56.4844 37.1503 56.4844H5.2737C4.30451 56.4844 3.5158 55.6957 3.5158 54.7266V8.78906C3.5158 7.81992 4.30451 7.03125 5.2737 7.03125H10.8498C11.5752 9.07734 13.53 10.5469 15.8211 10.5469H26.6029C28.894 10.5469 30.8488 9.07734 31.5742 7.03125H37.1503C38.1195 7.03125 38.9082 7.81992 38.9082 8.78906V29.625L26.14 42.3926C25.9466 42.5859 25.8013 42.8215 25.7146 43.0805L23.2289 50.5383C23.018 51.1699 23.1832 51.866 23.6531 52.3371C24.1254 52.8082 24.8216 52.9711 25.4521 52.7613L32.9102 50.2758C33.1692 50.1891 33.4048 50.0438 33.5982 49.8504L38.9082 44.5406V54.7266ZM29.8691 43.6359L32.3548 46.1215L31.4055 47.0719L27.6764 48.3141L28.9198 44.5852L29.8691 43.6359ZM34.8403 43.6359L32.3546 41.1504L47.271 26.2348L49.7567 28.7203L34.8403 43.6359ZM55.9726 22.5059L52.2435 26.2348L49.7567 23.748L53.4858 20.0191C54.1714 19.3348 55.287 19.3348 55.9726 20.0191C56.6582 20.7047 56.6582 21.8203 55.9726 22.5059Z" fill="#1A568C"/>
</svg>
