<svg width="52" height="60" viewBox="0 0 52 60" fill="none" xmlns="http://www.w3.org/2000/svg">
<path d="M50.6723 37.1484C51.4973 36.2145 52 34.9816 52 33.6328C52 30.7254 49.6669 28.3594 46.8 28.3594H36.7074C37.7069 25.2832 38.1333 21.2016 38.1333 19.452V17.6953C38.1333 13.8187 35.0226 10.6641 31.2 10.6641H29.4667C28.6716 10.6641 27.9783 11.2125 27.7853 11.9953L26.8412 15.8262C25.5181 21.191 21.3177 27.1102 16.9705 28.1859C16.209 26.2313 14.3289 24.8438 12.1333 24.8438H1.73333C0.776533 24.8438 0 25.6313 0 26.6016V58.2422C0 59.2125 0.776533 60 1.73333 60H12.1333C14.2006 60 15.9894 58.7707 16.8272 56.9941L22.7829 59.0074C24.73 59.666 26.7592 60 28.8126 60H43.3333C46.2003 60 48.5333 57.634 48.5333 54.7266C48.5333 54.041 48.4039 53.3848 48.1682 52.7836C50.373 52.173 52 50.1234 52 47.6953C52 46.3465 51.4973 45.1137 50.6723 44.1797C51.4973 43.2457 52 42.0129 52 40.6641C52 39.3152 51.4973 38.0824 50.6723 37.1484ZM13.8667 54.7266C13.8667 55.6957 13.089 56.4844 12.1333 56.4844H3.46667V28.3594H12.1333C13.089 28.3594 13.8667 29.148 13.8667 30.1172V54.7266ZM43.3333 38.9062H46.8C47.7556 38.9062 48.5333 39.6949 48.5333 40.6641C48.5333 41.6332 47.7556 42.4219 46.8 42.4219H43.3333C42.3765 42.4219 41.6 43.2094 41.6 44.1797C41.6 45.15 42.3765 45.9375 43.3333 45.9375H46.8C47.7556 45.9375 48.5333 46.7262 48.5333 47.6953C48.5333 48.6645 47.7556 49.4531 46.8 49.4531H43.3333C42.3765 49.4531 41.6 50.2406 41.6 51.2109C41.6 52.1813 42.3765 52.9688 43.3333 52.9688C44.289 52.9688 45.0667 53.7574 45.0667 54.7266C45.0667 55.6957 44.289 56.4844 43.3333 56.4844H28.8126C27.1324 56.4844 25.4719 56.2113 23.8784 55.6723L17.3333 53.4598V31.7086C20.0524 31.1848 22.7136 29.4387 25.116 26.5805C27.4618 23.7891 29.3638 20.0883 30.2039 16.6793L30.8198 14.1797H31.2C33.1113 14.1797 34.6667 15.757 34.6667 17.6953V19.452C34.6667 21.8121 33.9387 26.3391 33.0073 28.3594H29.4667C28.5099 28.3594 27.7333 29.1469 27.7333 30.1172C27.7333 31.0875 28.5099 31.875 29.4667 31.875H46.8C47.7556 31.875 48.5333 32.6637 48.5333 33.6328C48.5333 34.602 47.7556 35.3906 46.8 35.3906H43.3333C42.3765 35.3906 41.6 36.1781 41.6 37.1484C41.6 38.1188 42.3765 38.9062 43.3333 38.9062Z" fill="#1A568C"/>
<path d="M8.66667 52.9688C9.62396 52.9688 10.4 52.1818 10.4 51.2109C10.4 50.2401 9.62396 49.4531 8.66667 49.4531C7.70937 49.4531 6.93333 50.2401 6.93333 51.2109C6.93333 52.1818 7.70937 52.9688 8.66667 52.9688Z" fill="#1A568C"/>
<path d="M32.9333 0C31.9761 0 31.2 0.787031 31.2 1.75781V5.39062C31.2 6.36141 31.9761 7.14844 32.9333 7.14844C33.8906 7.14844 34.6667 6.36141 34.6667 5.39062V1.75781C34.6667 0.787031 33.8906 0 32.9333 0Z" fill="#1A568C"/>
<path d="M25.5794 7.75172L23.1281 5.26582C22.4513 4.57934 21.3537 4.57934 20.6768 5.26582C19.9999 5.9523 19.9999 7.06523 20.6768 7.75172L23.1281 10.2376C23.8049 10.924 24.9026 10.9241 25.5794 10.2376C26.2563 9.55113 26.2563 8.4382 25.5794 7.75172Z" fill="#1A568C"/>
<path d="M45.1898 5.26582C44.513 4.57934 43.4155 4.57934 42.7386 5.26582L40.2873 7.7516C39.6104 8.43809 39.6104 9.55102 40.2873 10.2375C40.9641 10.924 42.0616 10.9241 42.7386 10.2376L45.1898 7.75172C45.8668 7.06523 45.8668 5.9523 45.1898 5.26582Z" fill="#1A568C"/>
</svg>
