<svg width="60" height="60" viewBox="0 0 60 60" fill="none" xmlns="http://www.w3.org/2000/svg">
<path d="M59.7789 45.3052C58.7959 40.1208 54.219 35.703 48.3176 35.4072C46.3942 35.3123 44.2014 34.2553 42.5945 32.6485L38.6225 28.6781L49.5235 17.9094L50.7752 19.1598C51.6387 20.0261 53.1081 19.7652 53.6186 18.6442L59.8338 4.97144C60.1374 4.30465 59.9944 3.51938 59.4764 3.00141L56.9906 0.514575C56.4726 -0.00339338 55.6874 -0.14519 55.0204 0.157153L41.3452 6.373C40.2364 6.8755 39.958 8.34222 40.8295 9.21609L42.0648 10.4512L31.1638 21.2199L27.2235 17.2812C25.5931 15.651 24.6626 13.7408 24.6028 11.9044C24.502 8.76949 23.2234 5.82211 21.0058 3.60363C17.3503 -0.0514402 11.7351 -1.00535 7.03285 1.23059C6.51718 1.47551 6.15269 1.95598 6.05542 2.51965C5.95814 3.08215 6.14097 3.65637 6.54413 4.06066L10.5454 8.06156V10.5472H8.05963L4.05835 6.54644C3.65519 6.14332 3.07974 5.96051 2.51707 6.05777C1.95335 6.15504 1.47283 6.51949 1.22789 7.03511C-1.41154 12.5842 0.385232 19.1164 5.49755 22.5665C7.34472 23.8134 9.53164 24.519 11.8206 24.6057C13.451 24.669 15.0801 25.3358 16.49 26.4996C15.9682 27.8363 16.0072 29.3704 16.6482 30.7032L1.53729 46.0331C-0.513798 48.0898 -0.512626 51.431 1.54198 53.4852L6.51495 58.4577C8.56803 60.5106 11.9114 60.5175 13.9737 58.4577C13.976 58.4542 13.9796 58.4519 13.9819 58.4484L29.0847 43.1279C30.3992 43.7542 31.929 43.801 33.2688 43.2755C34.524 44.7884 35.3258 46.653 35.4078 48.316C35.7056 54.2216 40.1247 58.7938 45.3067 59.7762C49.4225 60.5502 53.5467 59.253 56.4012 56.3988C59.2855 53.5134 60.5477 49.3672 59.7789 45.3052ZM55.3662 3.86273L56.1292 4.62562L51.4669 14.8799L45.1098 8.52339L55.3662 3.86273ZM11.9554 21.0923C10.3216 21.0302 8.76868 20.5322 7.46426 19.6521C4.56817 17.6973 3.1571 14.3632 3.63058 11.0912L6.08835 13.5487C6.41768 13.878 6.86537 14.0632 7.33065 14.0632H12.3036C13.274 14.0632 14.0617 13.2757 14.0617 12.3053V7.33277C14.0617 6.86754 13.8765 6.41988 13.5472 6.09058L11.0928 3.63656C13.7792 3.25336 16.5498 4.12055 18.5188 6.09058C20.1034 7.67507 21.0164 9.77976 21.0891 12.0182C21.1781 14.7511 22.4732 17.5028 24.7376 19.7668L28.6615 23.6904L26.3842 25.9405L25.1337 24.6901C23.386 22.9426 20.7683 22.7045 18.7895 23.8381C16.7725 22.1517 14.3839 21.1861 11.9554 21.0923ZM11.4831 55.9756C10.7975 56.6576 9.68517 56.6553 9.00073 55.9721L4.02776 50.9996C3.34215 50.314 3.34215 49.1995 4.02776 48.5139L4.03714 48.5045L18.9266 33.3997L26.3854 40.8577L11.4831 55.9756ZM32.5926 39.6063C31.9073 40.2915 30.7944 40.2939 30.1067 39.6063L20.1608 29.6614C19.4714 28.972 19.4771 27.8593 20.1608 27.1757C20.8465 26.4901 21.9615 26.4894 22.6479 27.1757L32.5926 37.1194C33.2782 37.805 33.2782 38.9206 32.5926 39.6063ZM31.3572 30.9118L28.8713 28.4261L44.5519 12.9369L47.0378 15.4237C46.1698 16.2811 32.2037 30.0758 31.3572 30.9118ZM53.914 53.9118C51.8219 56.0049 48.9235 56.8826 45.9618 56.3213C42.297 55.6264 39.1362 52.3972 38.9191 48.1436C38.7995 45.6919 37.7002 43.0844 35.9315 40.9762C36.3816 40.1887 36.623 39.2944 36.623 38.3628C36.623 36.9542 36.0745 35.6299 35.0783 34.6338L33.8431 33.3986L36.1215 31.1485L40.1076 35.1353C42.3403 37.3667 45.3442 38.7812 48.1454 38.9183C52.3893 39.1353 55.6283 42.2875 56.3239 45.9603C56.8851 48.9219 56.0073 51.8199 53.914 53.9118Z" fill="#1A568C"/>
<path d="M47.6988 42.4235C44.7909 42.4235 42.4246 44.7896 42.4246 47.6971C42.4246 50.6047 44.7909 52.9708 47.6988 52.9708C50.6066 52.9708 52.9729 50.6047 52.9729 47.6971C52.9729 44.7896 50.6066 42.4235 47.6988 42.4235ZM47.6988 49.4551C46.7295 49.4551 45.9407 48.6664 45.9407 47.6971C45.9407 46.728 46.7294 45.9392 47.6988 45.9392C48.6681 45.9392 49.4568 46.7279 49.4568 47.6971C49.4568 48.6663 48.6681 49.4551 47.6988 49.4551Z" fill="#1A568C"/>
</svg>
