<svg width="20" height="17" viewBox="0 0 20 17" fill="none" xmlns="http://www.w3.org/2000/svg">
<path d="M0.228699 12.1354C0.533722 11.8338 1.02841 11.8338 1.33344 12.1354L2.32785 11.1521L1.22296 10.0596C0.918091 9.75812 0.917938 9.26862 1.22296 8.96698L10.0619 0.22634C10.3669 -0.0754466 10.8616 -0.0754466 11.1667 0.22634L16.6909 5.68928C16.9958 5.99077 16.996 6.48011 16.6909 6.78175L12.3268 11.0976L13.4485 12.2067H15.4686V9.88894C15.4686 9.46222 15.8183 9.11637 16.2498 9.11637H19.2186C19.6501 9.11637 19.9998 9.46222 19.9998 9.88894V16.0695C19.9998 16.4963 19.6501 16.8421 19.2186 16.8421H16.2498C15.8183 16.8421 15.4686 16.4963 15.4686 16.0695V13.7518H13.1248C12.9176 13.7518 12.7189 13.6705 12.5724 13.5256L11.2219 12.1901L7.85214 15.5225C7.54712 15.8242 7.05243 15.8242 6.74725 15.5225L5.64236 14.4299L4.6481 15.4131C4.95312 15.7149 4.95312 16.2041 4.6481 16.5058C4.34293 16.8074 3.84839 16.8076 3.54321 16.5058L0.228699 13.2281C-0.0764771 12.9264 -0.0764771 12.4372 0.228699 12.1354ZM17.0311 15.297H18.4373V10.6615H17.0311V15.297ZM7.29977 13.8835C7.63425 13.5528 14.6928 6.57246 15.0337 6.23551L10.6143 1.86519L2.88022 9.51322L7.29977 13.8835ZM3.43274 12.2447L2.43832 13.2281L3.54321 14.3207L4.53748 13.3373C4.27853 13.0811 3.69214 12.5014 3.43274 12.2447Z" fill="#B7CED7"/>
</svg>
