<svg width="34" height="37" viewBox="0 0 34 37" fill="none" xmlns="http://www.w3.org/2000/svg">
<path d="M27.3802 31.6625C27.8521 32.3053 27.7156 33.21 27.0749 33.6834C24.1398 35.8531 20.656 37 17 37C12.4591 37 8.18992 35.2261 4.97906 32.0049C1.76821 28.7837 0 24.5009 0 19.9453C0 16.9144 0.803065 13.9374 2.32225 11.3355C3.29555 9.66891 4.54742 8.18211 6.00892 6.9375H3.8178C3.02205 6.9375 2.37712 6.2905 2.37712 5.49219C2.37712 4.69388 3.02205 4.04688 3.8178 4.04688H7.56356C9.54956 4.04688 11.1653 5.66777 11.1653 7.66016V11.418C11.1653 12.2163 10.5203 12.8633 9.72458 12.8633C8.92883 12.8633 8.2839 12.2163 8.2839 11.418V8.80455C4.91266 11.4696 2.88136 15.5848 2.88136 19.9453C2.88136 27.7554 9.21499 34.1094 17 34.1094C20.0364 34.1094 22.9293 33.1575 25.3658 31.3565C26.0062 30.8828 26.908 31.02 27.3802 31.6625ZM29.0209 7.8857C26.152 5.00778 22.438 3.28611 18.4407 2.95188V1.44531C18.4407 0.647003 17.7957 0 17 0C16.2043 0 15.5593 0.647003 15.5593 1.44531V4.33594C15.5593 5.13425 16.2043 5.78125 17 5.78125C24.785 5.78125 31.1186 12.1353 31.1186 19.9453C31.1186 22.3309 30.5168 24.6886 29.3783 26.764C28.9945 27.4632 29.2486 28.3422 29.9458 28.727C30.1662 28.8487 30.4042 28.9065 30.6392 28.9065C31.1473 28.9065 31.64 28.6361 31.9026 28.1579C33.2746 25.6566 34 22.8167 34 19.9453C34 15.3898 32.2318 11.1069 29.0209 7.8857ZM17 22.8359C18.5887 22.8359 19.8814 21.5391 19.8814 19.9453C19.8814 19.5803 19.813 19.2311 19.6892 18.909L24.2321 13.2771C24.7327 12.6566 24.637 11.7466 24.0185 11.2446C23.4 10.7425 22.4929 10.8384 21.9926 11.4589L17.4499 17.09C17.3033 17.0671 17.1531 17.0547 17 17.0547C15.4113 17.0547 14.1186 18.3512 14.1186 19.9453C14.1186 21.5391 15.4113 22.8359 17 22.8359ZM26.7386 3.495L30.6971 6.80454C30.9667 7.02981 31.2937 7.13962 31.6187 7.13962C32.0314 7.13962 32.4414 6.96234 32.7262 6.61936C33.2358 6.00623 33.153 5.09501 32.5419 4.58379L28.5834 1.27453C27.9719 0.763306 27.0636 0.846298 26.5543 1.45943C26.0448 2.07284 26.1275 2.98406 26.7386 3.495Z" fill="#1A568C"/>
</svg>
