<svg width="40" height="40" viewBox="0 0 40 40" fill="none" xmlns="http://www.w3.org/2000/svg">
<path d="M29.1824 40C29.1531 40 29.1238 40 29.0945 40C26.3366 39.9863 23.3313 39.2862 20.1623 37.9193C19.3701 37.5775 19.0048 36.658 19.3466 35.8658C19.6884 35.0732 20.6076 34.7079 21.4001 35.0497C24.1418 36.2323 26.8078 36.8634 29.1104 36.875H29.1815C32.0621 36.875 34.4668 35.9997 36.1426 34.3414L36.1536 34.3289C37.1728 33.1933 37.1109 31.4739 36.0123 30.4147C31.8167 26.3689 29.8361 26.6625 28.0029 28.4502L25.0854 31.3461C24.6277 31.8002 23.938 31.9268 23.349 31.6644C23.1839 31.5908 19.2529 29.8122 14.8236 25.3826L14.6179 25.1772C10.1876 20.7469 8.40905 16.8162 8.3355 16.6511C8.07305 16.0621 8.1997 15.3724 8.6538 14.9147L11.5502 11.9966C13.3377 10.1633 13.6306 8.18274 9.5852 3.98776C8.52593 2.88912 6.80657 2.82717 5.6707 3.84646L5.6588 3.85715C3.98643 5.54692 3.11058 7.97736 3.12492 10.8897C3.153 16.5031 6.33538 23.0223 11.639 28.3318C11.6439 28.3367 11.6488 28.3413 11.6537 28.3462C12.6663 29.3591 13.8229 30.3655 15.0915 31.3381C15.7763 31.8633 15.9057 32.8439 15.3805 33.5287C14.8556 34.2138 13.8748 34.3432 13.1899 33.818C11.8197 32.7673 10.5645 31.675 9.45886 30.5709C9.45398 30.566 9.44879 30.5611 9.4439 30.556C3.56254 24.6749 0.0322634 17.3289 0.000219906 10.9052C-0.018701 7.12408 1.18369 3.91299 3.4774 1.61928C3.49693 1.59944 3.51738 1.58021 3.53813 1.5616L3.58299 1.52131C4.73564 0.486759 6.22185 -0.0518802 7.7691 0.0039673C9.31634 0.0595098 10.7601 0.704046 11.835 1.81856C13.9392 4.00089 15.1538 5.8289 15.6573 7.57238C16.3516 9.97444 15.7202 12.1995 13.7811 14.185C13.7783 14.1877 13.7753 14.1908 13.7722 14.1938L11.6754 16.3063C12.4188 17.6253 14.053 20.193 16.827 22.9668L17.0324 23.1725C19.8251 25.9649 22.3782 27.5884 23.6917 28.3263L25.8059 26.2276C25.809 26.2246 25.812 26.2215 25.8151 26.2188C27.8006 24.2794 30.0253 23.6483 32.4277 24.3425C34.1708 24.8461 35.9991 26.061 38.1811 28.1649C39.2957 29.2397 39.9402 30.6835 39.996 32.2308C40.0519 33.778 39.5129 35.2646 38.4787 36.4166L38.4384 36.4618C38.4195 36.4825 38.4003 36.503 38.3804 36.5228C36.1047 38.7985 32.9257 40 29.1824 40ZM40 9.7657C40 4.38083 35.6192 0 30.2344 0C24.8495 0 20.4687 4.38083 20.4687 9.7657C20.4687 15.1506 24.8495 19.5314 30.2344 19.5314C35.6192 19.5314 40 15.1506 40 9.7657ZM36.875 9.7657C36.875 13.4272 33.8959 16.4064 30.2344 16.4064C26.5725 16.4064 23.5937 13.4272 23.5937 9.7657C23.5937 6.10417 26.5725 3.12502 30.2344 3.12502C33.8959 3.12502 36.875 6.10417 36.875 9.7657ZM34.0625 9.7657C34.0625 8.90266 33.363 8.20319 32.5 8.20319H31.6327V6.56652C31.6327 5.70347 30.9332 5.00401 30.0702 5.00401C29.2074 5.00401 28.5156 5.70347 28.5156 6.56652V9.7657C28.5156 10.6287 29.2074 11.3282 30.0702 11.3282H32.5C33.363 11.3282 34.0625 10.6287 34.0625 9.7657Z" fill="#1A568C"/>
</svg>
