<svg width="34" height="31" viewBox="0 0 34 31" fill="none" xmlns="http://www.w3.org/2000/svg">
<path d="M28.6875 0H5.3125C2.38319 0 0 2.39253 0 5.33332V20.7333C0 23.6741 2.38319 26.0666 5.3125 26.0666H14.4766C15.2101 26.0666 15.8047 25.4697 15.8047 24.7333C15.8047 23.9969 15.2101 23.3999 14.4766 23.3999H5.3125C3.84784 23.3999 2.65625 22.2037 2.65625 20.7333V5.61585L14.1947 12.8188C15.06 13.359 16.0298 13.629 17 13.629C17.9699 13.629 18.9403 13.3589 19.8053 12.8189L31.3438 5.61585V13.6666C31.3438 14.403 31.9384 15 32.6719 15C33.4054 15 34 14.403 34 13.6666V5.33332C34 2.39253 31.6168 0 28.6875 0ZM18.4027 10.5542C17.5375 11.0944 16.4626 11.0944 15.5974 10.5542L3.76517 3.16786C4.20126 2.85293 4.7355 2.66666 5.3125 2.66666H28.6875C29.2646 2.66666 29.7987 2.85293 30.2349 3.16793L18.4027 10.5542ZM33.1287 24.4257C32.9827 24.3657 32.0825 23.9539 32.0825 22.9132V20.9119C32.0825 18.0971 30.1168 15.7088 27.4922 15.0769V14.2C27.4922 13.4636 26.8976 12.8666 26.1641 12.8666C25.4305 12.8666 24.8359 13.4636 24.8359 14.2V15.0615C22.1782 15.6688 20.1792 18.0734 20.1792 20.912V22.9133C20.1792 23.9539 19.2789 24.3658 19.133 24.4257C18.5913 24.6069 18.2617 25.1037 18.2617 25.6779C18.2617 26.5289 18.5632 27.4577 19.0681 28.1625C19.763 29.1325 20.7996 29.6667 21.987 29.6667H24.8359C24.8359 30.4018 25.4318 31 26.1641 31C26.8963 31 27.4922 30.4018 27.4922 29.6667H30.2747C31.4621 29.6667 32.4987 29.1325 33.1936 28.1625C33.6985 27.4576 34 26.5288 34 25.6779C34 25.1037 33.6704 24.6069 33.1287 24.4257ZM30.2747 26.9999H21.987C21.493 26.9999 21.2264 26.6845 21.083 26.3618C21.9622 25.7127 22.8354 24.5882 22.8354 22.9132V20.9119C22.8354 19.099 24.3024 17.6044 26.1057 17.5802C26.1141 17.5801 26.1225 17.5799 26.1309 17.5796C26.1392 17.5799 26.1477 17.5801 26.156 17.5802C27.9592 17.6044 29.4263 19.099 29.4263 20.9119V22.9132C29.4263 24.5882 30.2995 25.7127 31.1787 26.3618C31.0353 26.6845 30.7687 26.9999 30.2747 26.9999Z" fill="#1A568C"/>
</svg>
