<svg width="34" height="42" viewBox="0 0 34 42" fill="none" xmlns="http://www.w3.org/2000/svg">
<path d="M34 16.7969C33.9964 20.4732 32.8795 23.7964 30.4843 27.2587C29.967 28.0063 28.9349 28.1976 28.1788 27.6862C27.4231 27.1745 27.2297 26.1532 27.7467 25.4053C29.747 22.5141 30.6799 19.7785 30.6829 16.7972C30.6744 9.34612 24.5361 3.28125 17 3.28125C9.46388 3.28125 3.32588 9.34612 3.31714 16.8004C3.32297 22.7358 6.99838 26.7175 11.2543 31.3276C13.2119 33.4482 15.2258 35.6301 17 38.1394C18.7742 35.6298 20.7885 33.4479 22.746 31.3276L23.0019 31.0504C23.6194 30.381 24.6683 30.3336 25.345 30.9444C26.0214 31.5554 26.0693 32.593 25.4519 33.2624L25.1953 33.5402C22.9938 35.9249 20.7175 38.3909 18.8996 41.2361C18.5957 41.7116 18.0664 42 17.4976 42H16.5024C15.9336 42 15.4046 41.7116 15.1004 41.2361C13.2825 38.3909 11.0062 35.9249 8.80466 33.5402C6.55944 31.1081 4.43894 28.8109 2.80628 26.1776C0.921283 23.137 0.00323939 20.0695 0 16.8004C0.00518303 12.3092 1.77583 8.09097 4.98575 4.91899C8.19566 1.74701 12.4626 0 17 0C21.5374 0 25.8043 1.74701 29.0146 4.91899C32.2242 8.09065 33.9951 12.3089 34 16.7969ZM27.2831 16.8164C27.2831 22.4705 22.633 27.0703 16.9171 27.0703C11.2012 27.0703 6.55102 22.4705 6.55102 16.8164C6.55102 11.1623 11.2012 6.5625 16.9171 6.5625C22.633 6.5625 27.2831 11.1623 27.2831 16.8164ZM23.966 16.8164C23.966 12.9718 20.804 9.84375 16.9171 9.84375C13.0305 9.84375 9.86816 12.9718 9.86816 16.8164C9.86816 20.661 13.0305 23.7891 16.9171 23.7891C20.804 23.7891 23.966 20.661 23.966 16.8164Z" fill="#1A568C"/>
</svg>
