<svg width="208" height="151" viewBox="0 0 208 151" fill="none" xmlns="http://www.w3.org/2000/svg">
<path d="M0.549316 29.5422C1.28137 28.8079 2.46863 28.8079 3.20068 29.5422L5.58728 27.1483L2.93555 24.4888C2.20386 23.7549 2.20349 22.5633 2.93555 21.829L24.149 0.550996C24.8811 -0.183665 26.0684 -0.183665 26.8004 0.550996L40.0587 13.8498C40.7904 14.5838 40.7908 15.775 40.0587 16.5093L29.5847 27.0157L32.2767 29.7156H37.125V24.0734C37.125 23.0346 37.9644 22.1927 39 22.1927H46.125C47.1606 22.1927 48 23.0346 48 24.0734V39.1193C48 40.1581 47.1606 41 46.125 41H39C37.9644 41 37.125 40.1581 37.125 39.1193V33.4771H31.5C31.0027 33.4771 30.5259 33.2791 30.1743 32.9264L26.933 29.6752L18.8456 37.7877C18.1135 38.522 16.9263 38.522 16.1938 37.7877L13.5421 35.1278L11.1559 37.5214C11.8879 38.256 11.8879 39.4469 11.1559 40.1812C10.4235 40.9155 9.23657 40.9159 8.50415 40.1812L0.549316 32.2021C-0.183105 31.4678 -0.183105 30.2769 0.549316 29.5422ZM40.875 37.2385H44.25V25.9541H40.875V37.2385ZM17.5199 33.7977C18.3226 32.9926 35.2632 15.9998 36.0813 15.1796L25.4747 4.54058L6.91296 23.1587L17.5199 33.7977ZM8.23901 29.8082L5.85242 32.2021L8.50415 34.8619L10.8904 32.468C10.2689 31.8443 8.86157 30.433 8.23901 29.8082Z" fill="#F0F0F0"/>
<path d="M191.023 145.017H177.418V142.262H153.998V145.017H139.188C137.761 145.017 136.604 146.174 136.604 147.6C136.604 149.027 137.761 150.183 139.188 150.183H191.023C192.449 150.183 193.606 149.027 193.606 147.6C193.606 146.174 192.449 145.017 191.023 145.017Z" fill="#F0F0F0"/>
<path d="M123 75.3442V133.751C123 135.598 124.497 137.096 126.344 137.096H203.09C205.366 137.096 207.211 135.251 207.211 132.975V75.3442C207.211 73.4972 205.713 72 203.866 72H126.344C124.497 72 123 73.4972 123 75.3442ZM200.949 128.398C200.949 129.825 199.792 130.982 198.366 130.982H132.237C130.81 130.982 129.654 129.825 129.654 128.398V81.2134C129.654 79.7867 130.81 78.6299 132.237 78.6299H198.366C199.792 78.6299 200.949 79.7867 200.949 81.2134V128.398Z" fill="#F0F0F0"/>
</svg>
