<svg width="20" height="19" viewBox="0 0 20 19" fill="none" xmlns="http://www.w3.org/2000/svg">
<path d="M16.1552 17.3416H12.9242V16.6872H7.36181V17.3416H3.84441C3.50557 17.3416 3.23083 17.6163 3.23083 17.955C3.23083 18.2938 3.50557 18.5686 3.84441 18.5686H16.1552C16.4941 18.5686 16.7688 18.2938 16.7688 17.955C16.7688 17.6163 16.4941 17.3416 16.1552 17.3416Z" fill="#B7CED7"/>
<path d="M-0.000183105 0.794241V14.6658C-0.000183105 15.1046 0.355399 15.4602 0.794057 15.4602H19.0211C19.5616 15.4602 19.9998 15.022 19.9998 14.4815V0.794241C19.9998 0.355583 19.6442 0 19.2056 0H0.794057C0.355399 0 -0.000183105 0.355583 -0.000183105 0.794241ZM18.5127 13.3946C18.5127 13.7335 18.238 14.0082 17.8992 14.0082H2.19359C1.85475 14.0082 1.58017 13.7335 1.58017 13.3946V2.18819C1.58017 1.84935 1.85475 1.57461 2.19359 1.57461H17.8992C18.238 1.57461 18.5127 1.84935 18.5127 2.18819V13.3946Z" fill="#B7CED7"/>
</svg>
