<svg width="85" height="79" viewBox="0 0 85 79" fill="none" xmlns="http://www.w3.org/2000/svg">
<path d="M68.0228 73.0172H54.4185V70.2618H30.9979V73.0172H16.1878C14.7611 73.0172 13.6043 74.174 13.6043 75.6C13.6043 77.0267 14.7611 78.1835 16.1878 78.1835H68.0228C69.4494 78.1835 70.6062 77.0267 70.6062 75.6C70.6062 74.174 69.4494 73.0172 68.0228 73.0172Z" fill="#F0F0F0"/>
<path d="M0 3.34417V61.7507C0 63.5983 1.49719 65.0955 3.34417 65.0955H80.0896C82.3656 65.0955 84.2105 63.2505 84.2105 60.9745V3.34417C84.2105 1.49719 82.7133 0 80.8663 0H3.34417C1.49719 0 0 1.49719 0 3.34417ZM77.9492 56.3984C77.9492 57.8251 76.7924 58.9819 75.3657 58.9819H9.23692C7.81023 58.9819 6.6541 57.8251 6.6541 56.3984V9.21342C6.6541 7.78673 7.81023 6.62993 9.23692 6.62993H75.3657C76.7924 6.62993 77.9492 7.78673 77.9492 9.21342V56.3984Z" fill="#F0F0F0"/>
</svg>
