<svg width="19" height="19" viewBox="0 0 19 19" fill="none" xmlns="http://www.w3.org/2000/svg">
<path d="M15.6469 5.02941C15.6469 2.25625 13.3906 0 10.6175 0H9.49982C9.19115 0 8.94099 0.250161 8.94099 0.558824V5.21889C8.00867 4.06697 6.58717 3.35294 5.02923 3.35294C2.25607 3.35294 -0.000183105 5.60919 -0.000183105 8.38235V9.5C-0.000183105 9.80866 0.249978 10.0582 0.55864 10.0582H5.2187C4.06679 10.9907 3.35276 12.4126 3.35276 13.9706C3.35276 16.7437 5.60901 19 8.38217 19H9.49982C9.80848 19 10.0586 18.7498 10.0586 18.4412V13.7811C10.991 14.933 12.4125 15.6471 13.9704 15.6471C16.7436 15.6471 18.9998 13.3908 18.9998 10.6176V9.5C18.9998 9.19134 18.7497 8.94118 18.441 8.94118H13.7809C14.9328 8.00886 15.6469 6.58735 15.6469 5.02941ZM10.6175 1.11765C12.7744 1.11765 14.5292 2.87248 14.5292 5.02941C14.5292 6.6166 13.5773 8.02196 12.154 8.62771C11.8429 7.68208 11.0414 6.96325 10.0586 6.76264V1.11765H10.6175ZM9.60612 11.173C8.65787 11.2302 7.88229 10.5065 7.82684 9.60631C7.7679 8.62858 8.5424 7.82353 9.49982 7.82353C10.4173 7.82353 11.1763 8.56768 11.1763 9.5C11.1763 10.3839 10.4861 11.1188 9.60612 11.173ZM1.11746 8.38235C1.11746 6.22543 2.8723 4.47059 5.02923 4.47059C6.61642 4.47059 8.02177 5.42255 8.62753 6.84581C7.68189 7.15687 6.96306 7.95843 6.76245 8.94118H1.11746V8.38235ZM8.38217 17.8824C6.22524 17.8824 4.47041 16.1275 4.47041 13.9706C4.47041 12.3834 5.42237 10.978 6.84562 10.3723C7.15669 11.3179 7.95825 12.0368 8.94099 12.2374V17.8824H8.38217ZM17.8822 10.6176C17.8822 12.7746 16.1273 14.5294 13.9704 14.5294C12.3832 14.5294 10.9779 13.5774 10.3721 12.1542C11.3177 11.8431 12.0366 11.0416 12.2372 10.0588H17.8822V10.6176Z" fill="#B7CED7"/>
</svg>
