<svg width="50" height="50" viewBox="0 0 50 50" fill="none" xmlns="http://www.w3.org/2000/svg">
<path d="M41.1765 13.2353C41.1765 5.9375 35.239 0 27.9412 0H25C24.1877 0 23.5294 0.658318 23.5294 1.47059V13.7339C21.0759 10.7025 17.3351 8.82353 13.2353 8.82353C5.9375 8.82353 0 14.761 0 22.0588V25C0 25.8123 0.658318 26.4689 1.47059 26.4689H13.7339C10.7025 28.9229 8.82353 32.6649 8.82353 36.7647C8.82353 44.0625 14.761 50 22.0588 50H25C25.8123 50 26.4706 49.3417 26.4706 48.5294V36.2661C28.9241 39.2974 32.6649 41.1765 36.7647 41.1765C44.0625 41.1765 50 35.239 50 27.9412V25C50 24.1877 49.3417 23.5294 48.5294 23.5294H36.2661C39.2974 21.0759 41.1765 17.3351 41.1765 13.2353ZM27.9412 2.94118C33.6173 2.94118 38.2353 7.55917 38.2353 13.2353C38.2353 17.4121 35.7301 21.1104 31.9847 22.7045C31.1661 20.216 29.0568 18.3243 26.4706 17.7964V2.94118H27.9412ZM25.2798 29.4026C22.7844 29.5531 20.7433 27.6488 20.5974 25.2798C20.4423 22.7068 22.4805 20.5882 25 20.5882C27.4144 20.5882 29.4118 22.5465 29.4118 25C29.4118 27.3259 27.5954 29.2601 25.2798 29.4026ZM2.94118 22.0588C2.94118 16.3827 7.55917 11.7647 13.2353 11.7647C17.4121 11.7647 21.1104 14.2699 22.7045 18.0153C20.216 18.8339 18.3243 20.9432 17.7964 23.5294H2.94118V22.0588ZM22.0588 47.0588C16.3827 47.0588 11.7647 42.4408 11.7647 36.7647C11.7647 32.5879 14.2699 28.8896 18.0153 27.2955C18.8339 29.784 20.9432 31.6757 23.5294 32.2036V47.0588H22.0588ZM47.0588 27.9412C47.0588 33.6173 42.4408 38.2353 36.7647 38.2353C32.5879 38.2353 28.8896 35.7301 27.2955 31.9847C29.784 31.1661 31.6757 29.0568 32.2036 26.4706H47.0588V27.9412Z" fill="#F0F0F0"/>
</svg>
