<svg width="20" height="15" viewBox="0 0 20 15" fill="none" xmlns="http://www.w3.org/2000/svg">
<path d="M3.2514 6.81854C2.83448 7.22778 2.83448 7.89378 3.2514 8.30703C3.66832 8.71626 4.34684 8.71626 4.76785 8.30703C7.65361 5.47449 12.3501 5.47449 15.2359 8.30703C15.4443 8.51165 15.7182 8.61596 15.9921 8.61596C16.2659 8.61596 16.5398 8.51165 16.7482 8.30703C17.1652 7.8978 17.1652 7.23179 16.7482 6.81854C13.0286 3.16353 6.971 3.16353 3.2514 6.81854Z" fill="#B7CED7"/>
<path d="M6.14533 9.6591C5.72841 10.0683 5.72841 10.7343 6.14533 11.1476C6.56225 11.5568 7.24077 11.5568 7.66178 11.1476C8.94934 9.87977 11.0503 9.87977 12.3379 11.1476C12.5463 11.3522 12.8202 11.4565 13.094 11.4565C13.3679 11.4565 13.6418 11.3522 13.8502 11.1476C14.2671 10.7384 14.2671 10.0723 13.8502 9.66311C11.7288 7.57282 8.27082 7.57282 6.14533 9.6591Z" fill="#B7CED7"/>
<path d="M9.99982 14.8387C10.7877 14.8387 11.4263 14.2118 11.4263 13.4385C11.4263 12.6652 10.7877 12.0383 9.99982 12.0383C9.21197 12.0383 8.57329 12.6652 8.57329 13.4385C8.57329 14.2118 9.21197 14.8387 9.99982 14.8387Z" fill="#B7CED7"/>
<path d="M19.6871 3.92984C14.3448 -1.30995 5.65483 -1.30995 0.312508 3.92984C-0.104414 4.33907 -0.104414 5.00508 0.312508 5.41832C0.729431 5.82756 1.40795 5.82756 1.82896 5.41832C6.33335 0.992991 13.6663 0.992991 18.1748 5.41832C18.3832 5.62294 18.6571 5.72726 18.9309 5.72726C19.2048 5.72726 19.4787 5.62294 19.6871 5.41832C20.104 5.00909 20.104 4.34309 19.6871 3.92984Z" fill="#B7CED7"/>
</svg>
