<svg width="85" height="63" viewBox="0 0 85 63" fill="none" xmlns="http://www.w3.org/2000/svg">
<path d="M13.6909 28.7097C11.9354 30.4328 11.9354 33.237 13.6909 34.977C15.4463 36.7001 18.3033 36.7001 20.0759 34.977C32.2265 23.0505 52.0012 23.0505 64.1518 34.977C65.0295 35.8385 66.1826 36.2777 67.3357 36.2777C68.4888 36.2777 69.6419 35.8385 70.5196 34.977C72.2751 33.2539 72.2751 30.4496 70.5196 28.7097C54.8582 13.3201 29.3524 13.3201 13.6909 28.7097Z" fill="#F0F0F0"/>
<path d="M25.8758 40.6699C24.1204 42.393 24.1204 45.1972 25.8758 46.9372C27.6313 48.6603 30.4882 48.6603 32.2609 46.9372C37.6822 41.599 46.5283 41.599 51.9496 46.9372C52.8273 47.7988 53.9804 48.238 55.1335 48.238C56.2866 48.238 57.4397 47.7988 58.3175 46.9372C60.0729 45.2141 60.0729 42.4099 58.3175 40.6868C49.3853 31.8855 34.8253 31.8855 25.8758 40.6699Z" fill="#F0F0F0"/>
<path d="M42.1053 62.4788C45.4225 62.4788 48.1117 59.8392 48.1117 56.5831C48.1117 53.327 45.4225 50.6875 42.1053 50.6875C38.788 50.6875 36.0988 53.327 36.0988 56.5831C36.0988 59.8392 38.788 62.4788 42.1053 62.4788Z" fill="#F0F0F0"/>
<path d="M82.8939 16.5467C60.3999 -5.51557 23.8106 -5.51557 1.3166 16.5467C-0.438865 18.2698 -0.438865 21.074 1.3166 22.814C3.07206 24.5371 5.92899 24.5371 7.70166 22.814C26.6675 4.18102 57.543 4.18102 76.5261 22.814C77.4038 23.6755 78.5569 24.1148 79.71 24.1148C80.8631 24.1148 82.0162 23.6755 82.8939 22.814C84.6494 21.0909 84.6494 18.2867 82.8939 16.5467Z" fill="#F0F0F0"/>
</svg>
