<svg width="420" height="81" viewBox="0 0 420 81" fill="none" xmlns="http://www.w3.org/2000/svg">
<path d="M13.6909 28.7097C11.9354 30.4328 11.9354 33.237 13.6909 34.977C15.4463 36.7001 18.3033 36.7001 20.0759 34.977C32.2265 23.0505 52.0012 23.0505 64.1518 34.977C65.0295 35.8385 66.1826 36.2777 67.3357 36.2777C68.4888 36.2777 69.6419 35.8385 70.5196 34.977C72.2751 33.2539 72.2751 30.4496 70.5196 28.7097C54.8582 13.3201 29.3524 13.3201 13.6909 28.7097Z" fill="#F0F0F0"/>
<path d="M25.8758 40.6699C24.1204 42.393 24.1204 45.1972 25.8758 46.9372C27.6313 48.6603 30.4882 48.6603 32.2609 46.9372C37.6822 41.599 46.5283 41.599 51.9496 46.9372C52.8273 47.7988 53.9804 48.238 55.1335 48.238C56.2866 48.238 57.4397 47.7988 58.3175 46.9372C60.0729 45.2141 60.0729 42.4099 58.3175 40.6868C49.3853 31.8855 34.8253 31.8855 25.8758 40.6699Z" fill="#F0F0F0"/>
<path d="M42.1053 62.4788C45.4225 62.4788 48.1117 59.8392 48.1117 56.5831C48.1117 53.327 45.4225 50.6875 42.1053 50.6875C38.788 50.6875 36.0988 53.327 36.0988 56.5831C36.0988 59.8392 38.788 62.4788 42.1053 62.4788Z" fill="#F0F0F0"/>
<path d="M82.8939 16.5467C60.3999 -5.51557 23.8106 -5.51557 1.3166 16.5467C-0.438865 18.2698 -0.438865 21.074 1.3166 22.814C3.07206 24.5371 5.92899 24.5371 7.70166 22.814C26.6675 4.18102 57.543 4.18102 76.5261 22.814C77.4038 23.6755 78.5569 24.1148 79.71 24.1148C80.8631 24.1148 82.0162 23.6755 82.8939 22.814C84.6494 21.0909 84.6494 18.2867 82.8939 16.5467Z" fill="#F0F0F0"/>
<path d="M411.176 44.2353C411.176 36.9375 405.239 31 397.941 31H395C394.188 31 393.529 31.6583 393.529 32.4706V44.7339C391.076 41.7025 387.335 39.8235 383.235 39.8235C375.938 39.8235 370 45.761 370 53.0588V56C370 56.8123 370.658 57.4689 371.471 57.4689H383.734C380.703 59.9229 378.824 63.6649 378.824 67.7647C378.824 75.0625 384.761 81 392.059 81H395C395.812 81 396.471 80.3417 396.471 79.5294V67.2661C398.924 70.2974 402.665 72.1765 406.765 72.1765C414.062 72.1765 420 66.239 420 58.9412V56C420 55.1877 419.342 54.5294 418.529 54.5294H406.266C409.297 52.0759 411.176 48.3351 411.176 44.2353ZM397.941 33.9412C403.617 33.9412 408.235 38.5592 408.235 44.2353C408.235 48.4121 405.73 52.1104 401.985 53.7045C401.166 51.216 399.057 49.3243 396.471 48.7964V33.9412H397.941ZM395.28 60.4026C392.784 60.5531 390.743 58.6488 390.597 56.2798C390.442 53.7068 392.48 51.5882 395 51.5882C397.414 51.5882 399.412 53.5465 399.412 56C399.412 58.3259 397.595 60.2601 395.28 60.4026ZM372.941 53.0588C372.941 47.3827 377.559 42.7647 383.235 42.7647C387.412 42.7647 391.11 45.2699 392.705 49.0153C390.216 49.8339 388.324 51.9432 387.796 54.5294H372.941V53.0588ZM392.059 78.0588C386.383 78.0588 381.765 73.4408 381.765 67.7647C381.765 63.5879 384.27 59.8896 388.015 58.2955C388.834 60.784 390.943 62.6757 393.529 63.2036V78.0588H392.059ZM417.059 58.9412C417.059 64.6173 412.441 69.2353 406.765 69.2353C402.588 69.2353 398.89 66.7301 397.295 62.9847C399.784 62.1661 401.676 60.0568 402.204 57.4706H417.059V58.9412Z" fill="#F0F0F0"/>
</svg>
